<svg width="233" height="82" viewBox="0 0 233 82" fill="none" xmlns="http://www.w3.org/2000/svg">
<g clip-path="url(#clip0_389_2126)">
<path d="M89.8028 13.8599H95.32V41.8107H91.1205L79.1226 24.7195V41.8107H73.6055V13.8599H77.7989L89.7998 30.8881V13.8599H89.8028Z" fill="#2500CB"/>
<path d="M104.64 33.9457C105.334 36.4485 107.213 37.6985 110.278 37.6985C112.25 37.6985 113.742 37.033 114.756 35.7022L118.914 38.0971C116.941 40.9446 114.036 42.3684 110.197 42.3684C106.892 42.3684 104.238 41.3703 102.239 39.374C100.24 37.3777 99.2402 34.8629 99.2402 31.8265C99.2402 28.7902 100.228 26.3113 102.2 24.3001C104.172 22.2918 106.706 21.2847 109.797 21.2847C112.73 21.2847 115.149 22.2978 117.055 24.318C118.962 26.3413 119.916 28.8441 119.916 31.8235C119.916 32.489 119.85 33.1964 119.715 33.9397H104.64V33.9457ZM104.559 29.9532H114.756C114.462 28.5953 113.856 27.5852 112.937 26.9168C112.019 26.2514 110.971 25.9187 109.797 25.9187C108.411 25.9187 107.264 26.2723 106.357 26.9767C105.451 27.6811 104.85 28.6733 104.556 29.9532H104.559Z" fill="#2500CB"/>
<path d="M134.351 26.7968H129.834V35.1026C129.834 35.795 130.008 36.3016 130.353 36.6193C130.698 36.94 131.206 37.1169 131.872 37.1588C132.538 37.1978 133.364 37.1918 134.351 37.1379V41.8108C130.806 42.2095 128.306 41.8768 126.853 40.8127C125.4 39.7486 124.674 37.8453 124.674 35.1026V26.7968H121.195V21.8451H124.674V17.8106L129.834 16.252V21.8421H134.351V26.7938V26.7968Z" fill="#2500CB"/>
<path d="M152.587 21.8452H157.747V41.8109H152.587V39.4549C151.041 41.3973 148.868 42.3684 146.07 42.3684C143.273 42.3684 141.117 41.3493 139.211 39.3141C137.305 37.2788 136.351 34.782 136.351 31.8265C136.351 28.8711 137.302 26.3773 139.211 24.339C141.117 22.3038 143.405 21.2847 146.07 21.2847C148.868 21.2847 151.041 22.2558 152.587 24.1981V21.8422V21.8452ZM143.068 35.882C144.107 36.9341 145.428 37.4587 147.028 37.4587C148.628 37.4587 149.954 36.9341 151.008 35.882C152.062 34.8299 152.587 33.4811 152.587 31.8295C152.587 30.178 152.062 28.8291 151.008 27.777C149.954 26.725 148.628 26.2004 147.028 26.2004C145.428 26.2004 144.11 26.725 143.068 27.777C142.03 28.8291 141.511 30.181 141.511 31.8295C141.511 33.4781 142.03 34.8329 143.068 35.882Z" fill="#2500CB"/>
<path d="M175.58 21.8452H181.26L173.662 41.8109H167.785L160.188 21.8452H165.867L170.715 35.8191L175.586 21.8452H175.58Z" fill="#2500CB"/>
<path d="M186.296 19.4501C185.444 19.4501 184.703 19.1383 184.078 18.5119C183.451 17.8884 183.139 17.1481 183.139 16.2968C183.139 15.4455 183.451 14.6992 184.078 14.0607C184.706 13.4223 185.444 13.1016 186.296 13.1016C187.149 13.1016 187.929 13.4223 188.557 14.0607C189.184 14.6992 189.496 15.4455 189.496 16.2968C189.496 17.1481 189.181 17.8884 188.557 18.5119C187.929 19.1383 187.176 19.4501 186.296 19.4501ZM183.736 41.8107V21.845H188.896V41.8107H183.736Z" fill="#2500CB"/>
<path d="M193.611 41.8109V12.6611H198.771V41.8109H193.611Z" fill="#2500CB"/>
<path d="M203.49 41.8109V12.6611H208.65V41.8109H203.49Z" fill="#2500CB"/>
<path d="M217.727 33.9457C218.421 36.4485 220.3 37.6985 223.365 37.6985C225.337 37.6985 226.828 37.033 227.843 35.7022L232 38.0971C230.028 40.9446 227.123 42.3684 223.283 42.3684C219.979 42.3684 217.325 41.3703 215.326 39.374C213.327 37.3777 212.327 34.8629 212.327 31.8265C212.327 28.7902 213.315 26.3113 215.287 24.3001C217.259 22.2918 219.792 21.2847 222.884 21.2847C225.817 21.2847 228.236 22.2978 230.142 24.318C232.049 26.3413 233.003 28.8441 233.003 31.8235C233.003 32.489 232.937 33.1964 232.802 33.9397H217.727V33.9457ZM217.646 29.9532H227.843C227.549 28.5953 226.943 27.5852 226.024 26.9168C225.106 26.2514 224.058 25.9187 222.884 25.9187C221.497 25.9187 220.351 26.2723 219.444 26.9767C218.538 27.6811 217.937 28.6733 217.643 29.9532H217.646Z" fill="#2500CB"/>
<path d="M73.5394 81.6014H27.688V39.0112H60.1397V54.9185H73.5394V81.6014Z" fill="#FF5A40"/>
<path d="M60.0526 0.509766H28.7266V38.334H60.0526V0.509766Z" fill="#FFC700"/>
<path d="M29.2368 0.0571289H0V38.9335H29.2368V0.0571289Z" fill="#00BEFF"/>
<path d="M28.2373 38.1631H0.078125V63.1644H28.2373V38.1631Z" fill="#E6E6E6"/>
<path d="M60.6289 54.4179L60.6169 37.8123V0H28.1652V29.0928C23.3804 29.1528 19.5052 33.0344 19.4572 37.8123H1.20069V26.9377L9.3894 18.7608H0V28.1366V82.003H74.0286V54.4179H60.6289ZM49.1202 15.0949L59.4132 15.2928V18.3441H54.4513L34.751 31.9194C34.5529 31.7065 34.3458 31.5027 34.1266 31.3109L49.1202 15.0949ZM33.2051 30.5945C32.968 30.4356 32.7248 30.2858 32.4727 30.1509L42.8016 10.5808L47.4543 9.30095L48.1087 11.7408L59.4132 11.7858V14.1298L48.622 13.9229L33.2081 30.5945H33.2051ZM54.8235 19.5431H59.4102V24.7945L36.0597 33.7568C35.8916 33.445 35.7055 33.1453 35.5044 32.8546L54.8235 19.5431ZM59.4102 10.5868L49.0302 10.5449L48.3008 7.82323L41.9821 9.56172L31.377 29.6503C31.0499 29.5274 30.7167 29.4255 30.3715 29.3416L35.2523 9.04916L59.4132 2.38593V10.5868H59.4102ZM29.3689 1.19896H59.203L34.5919 7.98808L34.2497 8.081L29.3659 28.4004V1.19896H29.3689ZM37.1013 37.6864C37.0773 36.6912 36.8912 35.7381 36.561 34.8508L59.4162 26.0774V37.8123L37.1013 37.6864ZM1.20069 62.352V39.0112H19.5262C20.0695 43.3065 23.7226 46.6486 28.1562 46.7086V62.352H1.20069ZM35.7806 80.801H29.3779V75.5975H33.9225V77.8216H35.7806V80.801ZM48.4449 80.801H36.9813V76.6227H35.1232V74.3986H29.3779V63.551H42.9907V71.614H48.4449V80.801ZM59.9565 80.801H49.6455V70.415H44.1914V62.352H29.3779V51.957H50.5551V62.9515H59.9565V80.801ZM72.8279 80.801H61.1572V61.7525H51.7558V50.758H29.3779V46.6426C33.3612 46.145 36.525 42.9888 37.0293 39.0112H59.4282V55.6168H72.8279V80.804V80.801Z" fill="#2500CB"/>
<path d="M14.9605 66.5605H14.9575C13.991 66.5605 13.2075 67.3429 13.2075 68.308V68.311C13.2075 69.2761 13.991 70.0585 14.9575 70.0585H14.9605C15.927 70.0585 16.7105 69.2761 16.7105 68.311V68.308C16.7105 67.3429 15.927 66.5605 14.9605 66.5605Z" fill="white"/>
<path d="M6.8741 66.5605H6.8711C5.9046 66.5605 5.12109 67.3429 5.12109 68.308V68.311C5.12109 69.2761 5.9046 70.0585 6.8711 70.0585H6.8741C7.8406 70.0585 8.62411 69.2761 8.62411 68.311V68.308C8.62411 67.3429 7.8406 66.5605 6.8741 66.5605Z" fill="white"/>
<path d="M23.0474 66.5605H23.0444C22.0779 66.5605 21.2944 67.3429 21.2944 68.308V68.311C21.2944 69.2761 22.0779 70.0585 23.0444 70.0585H23.0474C24.0139 70.0585 24.7974 69.2761 24.7974 68.311V68.308C24.7974 67.3429 24.0139 66.5605 23.0474 66.5605Z" fill="white"/>
<path d="M14.9605 74.3984H14.9575C13.991 74.3984 13.2075 75.1808 13.2075 76.1459V76.1489C13.2075 77.114 13.991 77.8964 14.9575 77.8964H14.9605C15.927 77.8964 16.7105 77.114 16.7105 76.1489V76.1459C16.7105 75.1808 15.927 74.3984 14.9605 74.3984Z" fill="white"/>
<path d="M6.8741 74.3984H6.8711C5.9046 74.3984 5.12109 75.1808 5.12109 76.1459V76.1489C5.12109 77.114 5.9046 77.8964 6.8711 77.8964H6.8741C7.8406 77.8964 8.62411 77.114 8.62411 76.1489V76.1459C8.62411 75.1808 7.8406 74.3984 6.8741 74.3984Z" fill="white"/>
<path d="M23.0474 74.3984H23.0444C22.0779 74.3984 21.2944 75.1808 21.2944 76.1459V76.1489C21.2944 77.114 22.0779 77.8964 23.0444 77.8964H23.0474C24.0139 77.8964 24.7974 77.114 24.7974 76.1489V76.1459C24.7974 75.1808 24.0139 74.3984 23.0474 74.3984Z" fill="white"/>
<path d="M11.3826 42.4492H5.83545V47.9884H11.3826V42.4492Z" fill="#2500CB"/>
<path d="M16.9295 47.9883H11.3823V53.5275H16.9295V47.9883Z" fill="#2500CB"/>
<path d="M22.4769 53.5278H16.9297V59.067H22.4769V53.5278Z" fill="#2500CB"/>
<path d="M0 0.00878906V9.38467L9.3894 0.00878906H0Z" fill="#2500CB"/>
<path d="M0 9.38477V18.7606L9.3894 9.38477H0Z" fill="#2500CB"/>
<path d="M18.7756 9.37588L28.165 0H18.7756V0.00599481H9.38916V9.38188L18.7756 0.0119896V9.37588Z" fill="#2500CB"/>
<path d="M18.7756 18.7519L28.165 9.37598H18.7756V9.38197H9.38916V18.7579L18.7756 9.38497V18.7519Z" fill="#2500CB"/>
<path d="M12.3643 32.8607C9.78285 32.8607 7.68164 30.7625 7.68164 28.1847C7.68164 25.607 9.78285 23.5088 12.3643 23.5088C14.9458 23.5088 17.047 25.607 17.047 28.1847C17.047 30.7625 14.9458 32.8607 12.3643 32.8607ZM12.3643 24.7078C10.4432 24.7078 8.88233 26.2664 8.88233 28.1847C8.88233 30.1031 10.4432 31.6617 12.3643 31.6617C14.2854 31.6617 15.8463 30.1031 15.8463 28.1847C15.8463 26.2664 14.2854 24.7078 12.3643 24.7078Z" fill="#2500CB"/>
<path d="M48.8865 53.9713C51.1412 53.9713 52.9689 52.1462 52.9689 49.8948C52.9689 47.6435 51.1412 45.8184 48.8865 45.8184C46.6319 45.8184 44.8042 47.6435 44.8042 49.8948C44.8042 52.1462 46.6319 53.9713 48.8865 53.9713Z" fill="#FF5A40"/>
<path d="M48.8863 54.5707C46.3048 54.5707 44.2036 52.4725 44.2036 49.8947C44.2036 47.3169 46.3048 45.2188 48.8863 45.2188C51.4678 45.2188 53.569 47.3169 53.569 49.8947C53.569 52.4725 51.4678 54.5707 48.8863 54.5707ZM48.8863 46.4177C46.9652 46.4177 45.4043 47.9764 45.4043 49.8947C45.4043 51.813 46.9652 53.3717 48.8863 53.3717C50.8074 53.3717 52.3683 51.813 52.3683 49.8947C52.3683 47.9764 50.8074 46.4177 48.8863 46.4177Z" fill="#2500CB"/>
<path d="M47.1331 73.5475C49.3877 73.5475 51.2155 71.7224 51.2155 69.471C51.2155 67.2196 49.3877 65.3945 47.1331 65.3945C44.8785 65.3945 43.0508 67.2196 43.0508 69.471C43.0508 71.7224 44.8785 73.5475 47.1331 73.5475Z" fill="#FF5A40"/>
<path d="M47.1329 74.1468C44.5514 74.1468 42.4502 72.0486 42.4502 69.4709C42.4502 66.8931 44.5514 64.7949 47.1329 64.7949C49.7144 64.7949 51.8156 66.8931 51.8156 69.4709C51.8156 72.0486 49.7144 74.1468 47.1329 74.1468ZM47.1329 65.9939C45.2118 65.9939 43.6509 67.5525 43.6509 69.4709C43.6509 71.3892 45.2118 72.9479 47.1329 72.9479C49.054 72.9479 50.6149 71.3892 50.6149 69.4709C50.6149 67.5525 49.054 65.9939 47.1329 65.9939Z" fill="#2500CB"/>
</g>
<defs>
<clipPath id="clip0_389_2126">
<rect width="233" height="82" fill="white"/>
</clipPath>
</defs>
</svg>
